<svg width="48" height="48" viewBox="0 0 48 48" fill="none" xmlns="http://www.w3.org/2000/svg">
<g clip-path="url(#clip0_350_29)" filter="url(#filter0_i_350_29)">
<path fill-rule="evenodd" clip-rule="evenodd" d="M20.5343 11.6716C20.7597 12.4518 21.2418 13.7592 21.3545 15.0358C21.5924 17.6662 18.1048 16.9138 16.6052 15.9764C15.8476 15.5015 15.4437 14.7182 15.2841 13.8517C15.0493 12.5689 15.3248 11.8998 16.073 10.913C15.5596 12.2606 15.4124 14.6381 16.8776 15.5539C17.8105 16.1367 21.0383 17.2345 20.8442 15.0821C20.6845 13.3121 19.9613 12.091 19.7923 10.5862C19.7422 10.1359 19.7265 9.62714 19.761 8.99807C20.0647 9.954 20.265 10.7403 20.5343 11.6716ZM33.4891 27.9039C34.253 27.8083 35.0138 27.6695 35.7714 27.4845C38.2541 26.8801 40.6084 25.8101 42.6778 24.3454C41.4036 22.9516 40.577 21.0089 40.2201 19.2666C39.8413 17.4103 39.0023 15.1314 37.0331 15.0235C36.2723 14.1385 34.995 13.4909 33.223 13.2072C33.7584 13.8425 34.0589 14.783 34.2342 15.6156C32.6188 16.2015 32.0302 16.7072 31.3884 17.9622C31.2663 18.1966 31.1442 18.4587 31.0127 18.7547C30.7216 19.6212 30.7717 19.4393 30.0579 19.8988C29.8325 20.0437 29.7605 20.056 29.7855 20.3829C29.9295 22.193 30.6214 22.489 32.1836 22.4767C33.7772 22.4613 34.6287 23.5159 34.6506 24.6075C34.6757 25.7608 33.9024 26.655 33.4891 27.9039ZM2.48261 21.015C3.81942 21.4282 5.01222 22.4212 5.9483 23.411C8.03335 25.6189 10.3219 27.6942 12.9047 29.3285C13.2522 29.5475 13.606 29.7602 13.966 29.9638C13.487 29.0818 13.318 28.1012 13.7845 27.0929C14.3981 25.7577 15.8351 25.215 17.2314 25.144C18.5024 25.0793 19.8392 25.3722 21.0665 25.807C20.0584 23.4665 20.1617 20.7899 22.0026 18.7701C23.1046 17.5614 24.8828 17.4473 28.0448 17.4688C29.0216 17.475 29.5194 17.4226 30.1487 16.4636C30.6339 15.7235 31.1254 15.0574 31.2851 14.1755C31.473 13.1456 31.4448 12.4055 30.1706 12.054C29.2689 11.8042 29.2564 11.8936 28.6835 11.7795C27.6566 11.6593 26.2228 11.6007 25.9535 10.4135C25.7469 8.5417 24.1408 7.71219 22.3062 7.35141C14.8145 5.88051 15.3843 9.18001 12.6418 12.8156L9.8022 16.442C8.87551 17.3825 7.93317 18.1657 6.79046 18.8411C6.28642 19.1402 3.79437 19.7507 2.63601 20.0869C2.57966 20.3952 2.52644 20.7036 2.48261 21.015ZM24.0062 0.925095C11.5585 0.925095 1.38373 10.4844 0.626099 22.5569C1.71245 22.267 3.05866 22.7974 4.71167 24.5458C8.05214 28.0827 14.7612 34.3672 22.779 33.9386C20.9319 33.0166 19.2319 32.4122 17.5288 31.2496C12.9141 28.0982 15.7474 25.3198 21.3075 27.6973C31.7985 32.184 41.7855 28.7396 47.3738 22.378C46.5285 10.3888 36.3913 0.925095 24.0062 0.925095Z" fill="white"/>
<path fill-rule="evenodd" clip-rule="evenodd" d="M1.10205 28.8752C5.78872 35.3786 14.9899 39.4645 25.2492 35.943C30.5964 34.1082 33.0415 36.8896 28.5176 39.5107C26.8521 40.4759 25.2241 40.923 23.4396 41.6569C30.8782 42.6036 37.5717 37.2072 40.9309 34.1421C43.0253 32.2333 44.5281 32.0884 45.5925 32.9827C42.036 41.2653 33.7084 47.078 24.0063 47.078C12.7671 47.0749 3.37494 39.2795 1.10205 28.8752Z" fill="white"/>
</g>
<defs>
<filter id="filter0_i_350_29" x="0" y="0" width="48" height="48" filterUnits="userSpaceOnUse" color-interpolation-filters="sRGB">
<feFlood flood-opacity="0" result="BackgroundImageFix"/>
<feBlend mode="normal" in="SourceGraphic" in2="BackgroundImageFix" result="shape"/>
<feColorMatrix in="SourceAlpha" type="matrix" values="0 0 0 0 0 0 0 0 0 0 0 0 0 0 0 0 0 0 127 0" result="hardAlpha"/>
<feOffset/>
<feGaussianBlur stdDeviation="2.5"/>
<feComposite in2="hardAlpha" operator="arithmetic" k2="-1" k3="1"/>
<feColorMatrix type="matrix" values="0 0 0 0 0 0 0 0 0 0 0 0 0 0 0 0 0 0 0.5 0"/>
<feBlend mode="normal" in2="shape" result="effect1_innerShadow_350_29"/>
</filter>
<clipPath id="clip0_350_29">
<rect width="48" height="48" fill="white"/>
</clipPath>
</defs>
</svg>
